<svg xmlns="http://www.w3.org/2000/svg" viewBox="0 0 512 512"><circle cx="255.7" cy="255.7" fill="#e73c51" r="255.7"></circle><g fill="#fff"><path d="m118.9 376.8h69.4v-1.3h-69.4zm203.6 0h69.4v-1.3h-69.4zm-201.7-46.4c-1.1 0-2 .9-2 2v21.1c0 1.1.9 2 2 2h11.7c1 0 2-.9 2-2s-.9-2-2-2h-9.7v-19.1c0-1.1-.9-2-2-2m63.5 0h-5c-1.1 0-2 .9-2 2v21.1c0 1.1.9 2 2 2h6.4c4.2 0 7.6-3.4 7.6-7.7 0-2.7-1.5-5.1-3.6-6.5.9-1.1 1.4-2.5 1.4-4.1 0-3.8-3.1-6.8-6.8-6.8m-3.1 4h3.1c1.6 0 2.8 1.3 2.8 2.8 0 1.6-1.3 2.9-2.8 2.9h-3.1zm4.5 17h-4.5v-7.4h4.5c2 0 3.7 1.6 3.7 3.7s-1.7 3.7-3.7 3.7m198.1 4c1.1 0 2-.9 2-2v-9.6l7.3-10c.6-.9.4-2.1-.4-2.7-.9-.6-2.1-.5-2.7.4l-6.1 8.4-6.1-8.4c-.6-.9-1.8-1.1-2.7-.4-.9.6-1.1 1.9-.4 2.7l7.3 10v9.6c-.1 1.2.8 2 1.8 2m-222.6-21c1 0 2-.9 2-2s-.9-2-2-2h-11.7c-1.1 0-2 .9-2 2v21.1c0 1.1.9 2 2 2h11.7c1 0 2-.9 2-2s-.9-2-2-2h-9.7v-6.6h8.3c1.1 0 2-.9 2-2 0-1-.9-2-2-2h-8.3v-6.5zm192.4 21h11.7c1 0 2-.9 2-2s-.9-2-2-2h-9.7v-19.1c0-1.1-.9-2-2-2s-2 .9-2 2v21.1c.1 1.1.9 2 2 2m-102-21c1 0 2-.9 2-2s-.9-2-2-2h-11.7c-1.1 0-2 .9-2 2v21.1c0 1.1.9 2 2 2h11.7c1 0 2-.9 2-2s-.9-2-2-2h-9.7v-6.6h8.3c1.1 0 2-.9 2-2 0-1-.9-2-2-2h-8.3v-6.5zm-33.8 13.2c.2.4.4.9.4 1.5 0 2 .3 3.3.8 4.3.3.5.7 1 1.1 1.3.5.3 1 .4 1.4.4s.6-.1.8-.1c1-.4 1.6-1.5 1.3-2.5-.2-.6-.7-1-1.3-1.2-.1-.4-.2-1-.1-2.1 0-1.5-.5-2.8-1.2-3.9-.4-.5-.8-1-1.3-1.3 1.7-1.4 2.8-3.5 2.8-5.9 0-4.3-3.4-7.7-7.6-7.7h-6.4c-1.1 0-2 .9-2 2v21.1c0 1.1.9 2 2 2s2-.9 2-2v-7.7h4.2c.3.1 1.2.4 2 .9.5.1.9.5 1.1.9m-2.9-5.9h-4.4v-7.4h4.4c2 0 3.7 1.6 3.7 3.7s-1.7 3.7-3.7 3.7m90.9 13.7c1.1 0 2-.9 2-2v-21.1c0-1.1-.9-2-2-2s-2 .9-2 2v21.1c0 1.2.8 2 2 2m-27.8 0c5.7 0 10.3-4.6 10.3-10.3v-12.7c0-1.1-.9-2-2-2s-2 .9-2 2v12.7c0 3.5-2.8 6.4-6.4 6.4-3.5 0-6.4-2.9-6.4-6.4v-12.7c0-1.1-.9-2-2-2s-2 .9-2 2v12.7c.2 5.7 4.8 10.3 10.5 10.3m45-23v21.1c0 1.1.9 2 2 2h11.7c1 0 2-.9 2-2s-.9-2-2-2h-9.7v-19.1c0-1.1-.9-2-2-2s-2 .9-2 2m-120.4-182.1c2-1.5 4.3-2.7 6.9-3.6s5.4-1.3 8.5-1.3c2.4 0 5.1.4 7.8 1.1 2.8.7 5.4 1.8 8 3.2 2.2 1.2 3.9 2.2 5.1 3.2 1.2.9 1.8 1.6 1.8 2.2 0 .5-.2.7-.7.7-.4 0-.7-.1-.9-.3-.1-.1-.3-.2-.5-.3s-.6-.4-1.1-.6c-1.9-1.3-4.4-2.4-7.4-3.2s-6.1-1.2-9.3-1.2c-3.3 0-6.3.3-9.1.9s-5.1 1.4-7.1 2.4-3.6 2.2-4.7 3.7c-1.2 1.4-1.7 3-1.7 4.7 0 2 .8 3.8 2.5 5.6 1.6 1.8 3.9 3.3 6.7 4.7 2.8 1.3 6 2.4 9.7 3.2s7.5 1.2 11.6 1.2c14.9 0 22.4-4.4 22.4-13.2 0-1.2-.2-2.8-.6-4.8s-.9-3.9-1.5-5.7l-.5-1.4-6-19.4c-.8-2.7-1.3-4.7-1.6-6.2s-.5-2.8-.5-3.9c0-1 .1-2 .4-2.8.3-1 .8-1.9 1.4-2.6.6-.8 1.5-1.8 2.9-3.2 1.7-1.6 3.2-2.8 4.4-3.5s2.3-1 3.4-1 2.2.4 3.2 1.3c1 .8 1.9 1.9 2.7 3.3s1.4 2.9 1.9 4.7.7 3.6.7 5.5c0 1.5-.1 3-.4 4.4-.2 1.4-.6 2.9-1.2 4.6-.4.8-.7 1.3-.9 1.3-.3 0-.5-.2-.5-.7 0-.3.1-.8.3-1.7.2-1 .3-2.1.3-3 0-1.4-.2-3-.6-4.7s-.9-3.2-1.4-4.4c-.8-1.8-1.7-3.4-2.9-4.7s-2.2-1.9-2.9-1.9c-1.3 0-1.9 1-1.9 2.9 0 1.2.3 3 .9 5.5s1.6 5.8 3 10.2c1.1 3.3 1.9 6 2.6 8.1s1.2 3.7 1.5 4.7c1 3.4 1.7 6.1 2.2 8.1.4 1.6.6 3 .6 4.3 1.1-2.6 2.5-5.1 4.1-7.6 1.8-2.7 3.8-5.2 6.1-7.4 4.8-4.5 9.3-6.8 13.5-6.8 1.2 0 2.3.4 3.4 1.1s2 1.7 2.8 3 1.4 2.7 1.9 4.5c.5 1.7.7 3.6.7 5.5 0 2-.3 4.2-.8 6.6-.5 2.3-1.3 4.7-2.2 7.1s-2 4.8-3.3 7.1-2.7 4.5-4.2 6.5c-1.4 1.8-2.9 3.4-4.4 4.8s-3.3 2.7-5.3 4c-.5.3-1 .5-1.5.6h-.1c-.4 0-.6-.2-.6-.6 0-.2.1-.4.2-.6s.6-.5 1.3-.9 1.5-1.2 2.4-2.2c.9-1.1 1.8-2.3 2.7-3.7s1.8-3 2.6-4.7 1.6-3.4 2.3-5.2c.4-1.1.8-2.3 1.3-3.6.4-1.3.8-2.6 1.2-3.8s.7-2.4 1-3.5.5-2.1.7-2.9c.2-1.2.4-2.5.5-3.9s.2-2.7.2-3.9c0-2.3-.4-4.3-1.2-5.9s-1.7-2.5-2.9-2.5c-1.3 0-2.6.8-3.9 2.4l-1.8 2.4c-.6.8-1 1.7-1.5 2.7-.6 1.2-1.1 2.5-1.6 3.8s-1 2.7-1.5 4.1c-.1.4-.4 1.3-.9 2.9s-1.1 3.7-1.9 6.5l-3.4 11.1c-.8 2.5-1.4 4.6-2 6.2s-1 2.8-1.3 3.6c-.4 1-.9 2.2-1.4 3.4s-1.1 2.5-1.8 3.9c-.8 1.4-1.4 2.5-1.9 3.2l-.7 1.3c-.2.2-.3.5-.3.7 0 .4.2.9.8 1 14.7 3.1 39.7-1.9 52.8-5.1 3.3-9.3 5.2-19.7 5.2-30.5 0-41.4-26.5-74.9-59.2-74.9-32.2 0-58.4 32.6-59.1 73.1.3-1.2.7-2.3 1.3-3.4.7-2.6 2.3-4.4 4.2-5.9m53.1 85.4c20.9 0 39.3-13.8 49.8-34.6-9 1.6-27.8 3.8-54.4.7-.4 0-1.1.3-2.1.8l-2.3 1.3c-1.2.6-2.5 1.2-4 1.6-1.5.5-3 .7-4.4.7-2.4 0-4.4-.5-6-1.4s-2.5-2.1-2.5-3.5c0-2.2 1.2-3.9 3.6-5.3s5.4-2 9.1-2h1.8c.6 0 1.1.1 1.5.2 1.3.2 2.2.3 2.7.3.8 0 1.4-.4 1.7-1.3.6-1.2 1.2-3.2 1.9-6s1.4-5.8 2.1-8.9l2.2-10.3c.1-.2.1-.5.2-.7-1.8 2.7-4.2 5-7.1 7.1-3.1 2.2-6.8 4-10.9 5.4-4.1 1.3-8.4 2-12.8 2-4 0-7.8-.5-11.4-1.6-3.6-1-6.8-2.5-9.5-4.3s-4.8-3.9-6.5-6.2c-.9-1.3-1.5-2.6-1.9-4 2.2 39.1 27.9 70 59.2 70m-11.9-36c-.5-.1-1.1-.2-1.9-.4-1-.2-2-.3-2.9-.3-1.5 0-2.8.2-4 .6s-1.8.9-1.8 1.5.5 1 1.4 1.4 2 .6 3.3.6c1.2 0 2.7-.2 4.4-.5 1.5-.3 2.6-.7 3.2-.9.6-.3.9-.6.9-.9 0-.5-.6-.8-1.7-.8-.2-.2-.4-.2-.9-.3m11.9 42.8c35.7 0 64.6-36.6 64.6-81.7s-28.9-81.7-64.6-81.7-64.6 36.6-64.6 81.7c.1 45.1 29 81.7 64.6 81.7m0-161c34.6 0 62.6 35.5 62.6 79.3s-28 79.3-62.6 79.3-62.6-35.5-62.6-79.3 28.1-79.3 62.6-79.3m85.8 239.5c2.6 0 4.8-2.1 4.8-4.7v-50.5c0-2.7-2.2-4.7-4.8-4.7-2.7 0-4.7 2.1-4.7 4.7v50.5c0 2.6 2.1 4.7 4.7 4.7m-16.2-4.7v-50.5c0-2.7-2.1-4.7-4.8-4.7s-4.7 2.1-4.7 4.7v20.5h-22.2v-20.5c0-2.7-2.1-4.7-4.8-4.7s-4.7 2.1-4.7 4.7v50.5c0 2.7 2.1 4.7 4.7 4.7 2.7 0 4.8-2.1 4.8-4.7v-20.5h22.2v20.5c0 2.7 2.1 4.7 4.7 4.7s4.8-2.1 4.8-4.7m65.4-4.8h-23.2v-15.7h19.9c2.6 0 4.7-2.1 4.7-4.8 0-2.5-2.1-4.7-4.7-4.7h-19.9v-15.7h23.2c2.5 0 4.7-2.1 4.7-4.8s-2.2-4.7-4.7-4.7h-28c-2.7 0-4.7 2.1-4.7 4.7v50.5c0 2.6 2.1 4.7 4.7 4.7l.1-.1s0 .1.2.1h27.7c2.5 0 4.7-2.1 4.7-4.7 0-2.7-2.2-4.8-4.7-4.8m-191.4 9.5c7.9 0 15.4-3.6 20.5-9.2 5.3-5.6 8.6-13.2 8.6-21.7s-3.3-16-8.6-21.7c-5.1-5.6-12.6-9.2-20.5-9.2-8.2 0-15.7 3.5-21 9.2-5.3 5.6-8.5 13.2-8.5 21.7s3.2 16.1 8.5 21.7c5.2 5.6 12.7 9.2 21 9.2m-13.9-45.8c3.6-3.9 8.4-6.1 13.9-6.1 5.1 0 9.9 2.2 13.5 6.1 3.5 3.8 5.8 9.2 5.8 15s-2.3 11.2-5.8 14.9c-3.6 3.9-8.4 6.2-13.5 6.2-5.5 0-10.3-2.3-13.9-6.2-3.6-3.7-5.8-9.1-5.8-14.9 0-5.9 2.2-11.3 5.8-15m91.5 4.3c0-10.2-8.2-18.4-18.4-18.4h-15.3c-2.6 0-4.7 2.1-4.7 4.7v50.5c0 2.6 2.1 4.7 4.7 4.7 2.7 0 4.8-2.1 4.8-4.7v-18.6h10.5c10.2 0 18.4-8.2 18.4-18.2m-18.4 8.7h-10.5v-17.6h10.5c5 0 8.8 3.9 8.9 8.9-.1 4.8-3.9 8.7-8.9 8.7m-118.1 32.7c6.1 0 11.6-1.8 15.8-4.9 4.3-3.1 7.4-7.8 7.4-13.3 0-2.7-.8-5.2-2.1-7.3-2-3.2-5.1-5.4-8.6-7.1-3.4-1.6-7.4-2.7-11.8-3.6h-.1c-4.6-.9-8.5-2.2-10.7-3.8-1.1-.8-1.9-1.5-2.3-2.2s-.6-1.4-.6-2.4c0-1.8.9-3.7 3.3-5.4 2.3-1.7 5.7-2.9 9.6-2.9 5.2 0 9.4 2.6 13.8 5.5 2.1 1.4 4.8.8 6.1-1.3 1.4-2 .8-4.7-1.2-6.1-4.4-2.8-10.4-6.8-18.7-6.8-5.6 0-10.8 1.6-14.8 4.5-3.9 2.9-6.8 7.4-6.8 12.5 0 2.6.7 5 2 7 1.9 3 4.7 5.1 8 6.7s7 2.6 11 3.3h.2c5.1.9 9.2 2.4 11.7 4 1.3.9 2.1 1.7 2.6 2.6s.8 1.6.8 2.7c0 2.1-1.1 4.3-3.7 6.2s-6.4 3.2-10.7 3.2c-6.1.1-12.6-3.5-16.3-6.6-1.9-1.5-4.7-1.3-6.2.6s-1.2 4.7.7 6.2c4.5 4 12.3 8.6 21.6 8.7"></path><path d="m255.7 499.3c-134.3 0-243.5-109.3-243.5-243.6s109.2-243.5 243.5-243.5 243.5 109.2 243.5 243.5c.1 134.3-109.2 243.6-243.5 243.6zm0-478.4c-129.5 0-234.9 105.4-234.9 234.9s105.4 234.9 234.9 234.9 234.9-105.4 234.9-234.9c0-129.6-105.4-234.9-234.9-234.9z"></path><path d="m210.7 378.7c-.1.7-.3 1.4-.6 1.9-.3.6-.7 1-1.1 1.4-.5.4-1 .7-1.6.9s-1.2.3-1.9.3c-.5 0-1-.1-1.4-.2-.5-.1-.9-.3-1.3-.5s-.8-.5-1.1-.8c-.5-.5-.8-1-1-1.5s-.3-1.1-.4-1.7-.1-1.5-.1-2.7v-2.1c0-.5.1-1 .2-1.4s.2-.8.4-1.2.5-.8.8-1.1c.5-.5 1.1-.9 1.7-1.2.7-.3 1.4-.4 2.1-.4 1.4 0 2.5.4 3.5 1.2.9.8 1.5 1.9 1.8 3.3h-2.3c-.2-.8-.5-1.4-1-1.8-.5-.5-1.2-.7-1.9-.7-.4 0-.8.1-1.2.2-.4.2-.7.4-1 .7-.2.2-.3.4-.5.6-.1.2-.2.5-.3.9s-.1.8-.1 1.2v3.6c0 .4.1.8.1 1.2.1.4.2.6.3.9.1.2.3.4.5.7.3.3.6.5 1 .6.4.2.8.2 1.2.2.5 0 1-.1 1.4-.3s.7-.5 1-.9.5-.8.6-1.3zm14.4 4.3h-2.6l-3.1-6.2h-2.8v6.2h-2.2v-14.7h5.7c.9 0 1.7.2 2.4.5.7.4 1.2.9 1.6 1.5s.6 1.4.6 2.2c0 1-.3 1.8-.8 2.5s-1.2 1.1-2.1 1.4zm-2.6-10.3c0-.7-.2-1.3-.7-1.7s-1.1-.6-1.8-.6h-3.3v4.6h3.3c.8 0 1.4-.2 1.8-.6.4-.5.7-1 .7-1.7zm15.6 10.3h-9.4v-14.7h9.4v2h-7.1v4.3h6.1v2h-6.1v4.4h7.1zm-2-19.4-2.3 3.3h-1.6l1.5-3.3zm16.7 19.4h-2.4l-1-2.9h-5.8l-1 2.9h-2.4l5.4-14.7h1.8zm-4-4.8-2.2-6.5-2.3 6.5zm15.9-7.8h-4v12.6h-2.2v-12.7h-4v-2h10.3v2.1zm14.1 12.6h-2.6l-3.1-6.2h-2.8v6.2h-2.2v-14.7h5.7c.9 0 1.7.2 2.4.5.7.4 1.2.9 1.6 1.5s.6 1.4.6 2.2c0 1-.3 1.8-.8 2.5s-1.2 1.1-2.1 1.4zm-2.7-10.3c0-.7-.2-1.3-.7-1.7s-1.1-.6-1.8-.6h-3.3v4.6h3.3c.8 0 1.4-.2 1.8-.6.5-.5.7-1 .7-1.7zm8.5 10.3h-2.2v-14.7h2.2zm14.6-4.3c-.1.7-.3 1.4-.6 1.9-.3.6-.7 1-1.1 1.4-.5.4-1 .7-1.6.9s-1.2.3-1.9.3c-.5 0-1-.1-1.4-.2-.5-.1-.9-.3-1.3-.5s-.8-.5-1.1-.8c-.5-.5-.8-1-1-1.5s-.3-1.1-.4-1.7c0-.6-.1-1.5-.1-2.7v-2.1c0-.5.1-1 .2-1.4s.2-.8.4-1.2.5-.8.8-1.1c.5-.5 1.1-.9 1.7-1.2.7-.3 1.4-.4 2.1-.4 1.4 0 2.5.4 3.5 1.2.9.8 1.5 1.9 1.8 3.3h-2.2c-.2-.8-.5-1.4-1-1.8s-1.2-.7-1.9-.7c-.4 0-.8.1-1.2.2-.4.2-.7.4-1 .7-.2.2-.3.4-.5.6-.1.2-.2.5-.3.9s-.1.8-.1 1.2v3.6c0 .4.1.8.1 1.2.1.4.2.6.3.9.1.2.3.4.5.7.3.3.6.5 1 .6.4.2.8.2 1.2.2.5 0 1-.1 1.4-.3s.7-.5 1-.9.5-.8.6-1.3zm13.2 4.3h-9.4v-14.7h9.4v2h-7.1v4.3h6.1v2h-6.1v4.4h7.1zm-142.8 17.3v.7c0 .8 0 1.5-.1 2.1s-.2 1.2-.4 1.7-.5 1.1-1 1.5c-.9.9-2.2 1.4-3.8 1.4h-5.2v-14.7h5.2c1.6 0 2.9.5 3.8 1.4.4.4.8.9 1 1.5.2.5.4 1.1.4 1.7.1.6.1 1.2.1 2zm-2.2 0v-2c0-.5-.1-.9-.2-1.3s-.3-.7-.5-1c-.6-.7-1.4-1-2.5-1h-2.7v10.7h2.7c1.1 0 1.9-.3 2.5-1 .3-.4.6-.9.7-1.6zm15.7 7.5h-9.4v-14.7h9.4v2h-7.1v4.3h6.1v2h-6.1v4.4h7.1zm19.8-5.7c0 1-.1 1.8-.3 2.4s-.5 1.2-1 1.7c-1.1 1.1-2.4 1.7-4 1.7-.5 0-1-.1-1.4-.2-.5-.1-.9-.3-1.3-.5s-.8-.5-1.1-.8c-.5-.5-.8-1-1-1.5s-.3-1.1-.4-1.7c0-.6-.1-1.5-.1-2.7v-2.1c0-.5.1-1 .2-1.4s.2-.8.4-1.2.5-.8.8-1.1c1-1 2.3-1.6 3.9-1.6 1 0 1.9.2 2.6.6.8.4 1.4.9 1.8 1.6s.7 1.5.9 2.3h-2.2c-.1-.5-.3-1-.6-1.4s-.6-.7-1-.9-.9-.3-1.5-.3c-.4 0-.8.1-1.2.2s-.7.4-1 .7c-.4.4-.6.9-.7 1.5s-.2 1.6-.2 3.1v1.8c0 .4.1.8.1 1.2.1.4.2.6.3.9.1.2.3.4.5.7.3.3.6.5 1 .6.4.2.8.2 1.2.2 1 0 1.8-.3 2.4-1 .5-.6.7-1.3.7-2.3v-.8h-3.1v-1.9h5.4v2.2zm14.1-1.7c0 1.2 0 2-.1 2.7 0 .6-.2 1.2-.4 1.7s-.5 1-1 1.5c-1.1 1-2.3 1.6-3.9 1.6s-2.8-.5-3.9-1.6c-.5-.5-.8-1-1-1.5s-.3-1.1-.4-1.7c0-.6-.1-1.5-.1-2.7v-2.1c0-.5.1-1 .2-1.4s.2-.8.4-1.2.5-.8.8-1.1c1-1 2.3-1.6 3.9-1.6s2.8.5 3.9 1.6c.4.5.8 1 1 1.5s.3 1.1.4 1.7c.2.6.2 1.5.2 2.6zm-2.2 0c0-1.5-.1-2.5-.2-3.1s-.3-1.1-.7-1.5c-.3-.3-.6-.5-1-.7s-.8-.2-1.2-.2-.8.1-1.2.2c-.4.2-.7.4-1 .7-.4.4-.6.9-.7 1.5s-.2 1.6-.2 3.1v1.9c0 .5.1.9.1 1.2.1.3.1.6.2.8s.2.4.5.7.6.5 1 .7.8.2 1.2.2c.9 0 1.6-.3 2.2-.9.2-.3.4-.6.5-.9s.2-.8.3-1.4.2-1.3.2-2.3zm16.6 2.4c0 1-.2 1.9-.7 2.6-.5.8-1.1 1.4-1.9 1.8s-1.7.6-2.7.6-1.9-.2-2.7-.6-1.4-1-1.9-1.8-.7-1.7-.7-2.6v-9.7h2.2v9.6c0 .6.1 1.2.4 1.7.2.5.6.8 1.1 1.1s1 .4 1.6.4 1.1-.1 1.6-.4.8-.6 1.1-1.1.4-1 .4-1.7v-9.6h2.2zm15.1 5h-2.6l-3.1-6.2h-2.8v6.2h-2.2v-14.7h5.7c.9 0 1.7.2 2.4.5.7.4 1.2.9 1.6 1.5s.6 1.4.6 2.2c0 1-.3 1.8-.8 2.5s-1.2 1.1-2.1 1.4zm-2.7-10.4c0-.7-.2-1.3-.7-1.7s-1.1-.6-1.8-.6h-3.3v4.6h3.3c.8 0 1.4-.2 1.8-.6.5-.4.7-1 .7-1.7zm19.3 10.4h-2.2v-9.8l-3.4 7.2h-1.6l-3.5-7.2v9.8h-2.2v-14.7h2.2l4.3 9.1 4.2-9.1h2.2zm15.4 0h-2.4l-1-2.9h-5.8l-1 2.9h-2.3l5.4-14.7h1.8zm-4-4.9-2.2-6.5-2.3 6.5zm18 4.9h-2l-6.8-10.3v10.3h-2.2v-14.7h2.1l6.8 10.3v-10.3h2.2v14.7zm15-7.5v.7c0 .8 0 1.5-.1 2.1s-.2 1.2-.4 1.7c-.2.6-.5 1.1-1 1.5-.9.9-2.2 1.4-3.8 1.4h-5.2v-14.7h5.2c1.6 0 2.9.5 3.8 1.4.4.4.8.9 1 1.5.2.5.4 1.1.4 1.7.1.6.1 1.2.1 2zm-2.2 0v-2c0-.5-.1-.9-.2-1.3s-.3-.7-.5-1c-.6-.7-1.4-1-2.5-1h-2.7v10.7h2.7c1.1 0 1.9-.3 2.5-1 .3-.4.6-.9.7-1.6zm8.6 7.5h-2.2v-14.7h2.2zm13.8-4.2c0 .7-.1 1.2-.4 1.8-.3.5-.6 1-1.1 1.4s-1 .7-1.7.9c-.6.2-1.3.3-2.1.3-1.1 0-2.1-.1-2.9-.4s-1.6-.8-2.3-1.5l1.5-1.5c.3.3.7.6 1.1.8s.8.4 1.3.5c.4.1.9.1 1.4.1.9 0 1.7-.2 2.2-.6s.8-.9.8-1.7c0-.7-.2-1.2-.6-1.5-.2-.2-.4-.3-.6-.4s-.6-.2-1-.2l-1.7-.2c-1.2-.2-2.1-.6-2.8-1.2-.7-.7-1.1-1.6-1.1-2.8 0-.9.2-1.6.6-2.3.4-.6 1-1.2 1.7-1.5.7-.4 1.6-.5 2.6-.5s1.8.1 2.6.4c.7.3 1.4.7 2 1.3l-1.4 1.4c-.3-.3-.6-.5-.9-.7s-.7-.3-1-.4c-.4-.1-.8-.1-1.2-.1-.6 0-1 .1-1.4.3s-.7.5-.9.8-.3.7-.3 1.2c0 .6.2 1 .6 1.4.2.2.4.3.7.4l.9.3 1.7.3c.7.1 1.2.2 1.6.4s.8.4 1.1.7c.6.5 1 1.5 1 2.8zm13.2 4.2h-9.4v-14.7h9.4v2h-7.1v4.3h6.1v2h-6.1v4.4h7.1zm13-4.2c0 .7-.1 1.2-.4 1.8-.3.5-.6 1-1.1 1.4s-1 .7-1.7.9c-.6.2-1.3.3-2.1.3-1.1 0-2.1-.1-2.9-.4s-1.6-.8-2.3-1.5l1.5-1.5c.3.3.7.6 1.1.8s.8.4 1.3.5.9.1 1.4.1c.9 0 1.7-.2 2.2-.6s.8-.9.8-1.7c0-.7-.2-1.2-.6-1.5-.2-.2-.4-.3-.6-.4s-.6-.2-1-.2l-1.7-.2c-1.2-.2-2.1-.6-2.8-1.2-.7-.7-1.1-1.6-1.1-2.8 0-.9.2-1.6.6-2.3.4-.6 1-1.2 1.7-1.5.7-.4 1.6-.5 2.6-.5s1.8.1 2.6.4c.7.3 1.4.7 2 1.3l-1.4 1.4c-.3-.3-.6-.5-.9-.7s-.7-.3-1-.4c-.4-.1-.8-.1-1.2-.1-.6 0-1 .1-1.4.3s-.7.5-.9.8-.3.7-.3 1.2c0 .6.2 1 .6 1.4.2.2.4.3.7.4l.9.3 1.7.3c.7.1 1.2.2 1.6.4s.8.4 1.1.7c.6.5 1 1.5 1 2.8z"></path></g></svg>