<svg xmlns="http://www.w3.org/2000/svg" xmlns:xlink="http://www.w3.org/1999/xlink" version="1.1" id="Calque_1" x="0px" y="0px" viewBox="0 0 260.2 150" style="enable-background:new 0 0 260.2 150;" xml:space="preserve"> <style type="text/css"> .st0{fill:#E83C51;} </style> <g> <path class="st0" d="M136.8,0c0,1.3,0.3,2.7,0.9,4.1c-3,0.7-5.6,1.8-7.4,4.4c-1.2-1.2-2.2-2.3-3.4-3c-1.1-0.7-2.5-0.9-4.1-1.4 c0.4-1.4,0.7-2.7,0.7-4.1h-2.3c0,1.9-0.8,3.8-1.3,5.8c2,0.6,4.1,0.8,5.7,1.8c1.7,1,3,2.7,4.7,4.3c2.5-3.5,5.8-5.4,10.2-5.8 c-0.5-2.2-1.3-4.1-1.3-6c0,0,0,0,0,0H136.8z"></path> <path class="st0" d="M233.8,90.1c1,0.3,1.7,0.6,2.5,0.8c3.6,1,7.2,2,10.8,2.9c1.3,0.3,2.3,0.9,3.2,1.9c2.7,2.8,5.5,5.5,8.3,8.3 c0.4,0.4,0.9,0.8,1.4,1.2v-3.1c0,0,0,0,0,0c-2.3-2.3-4.6-4.4-6.7-6.8c-2.1-2.3-4.5-3.7-7.5-4.3c-3-0.6-6-1.6-9.3-2.4 c0.9-3.3,1.6-6.3,2.5-9.3c1-2.9,1-5.7,0-8.7c-1-2.9-1.6-5.9-2.5-9c0.7-0.3,1.2-0.6,1.9-0.8c3.3-0.9,6.6-1.8,9.8-2.6 c1.3-0.3,2.3-0.9,3.2-1.9c2.7-2.8,5.5-5.6,8.3-8.5c0.1,0.1,0.1,0.1,0.2,0.1v-3.3c0,0-0.1-0.1-0.1-0.1c-3.3,3.3-6.4,6.4-9.5,9.5 c-1.1,1.1-2.2,1.7-3.7,2.1c-3.5,0.9-6.9,1.8-10.3,2.7c-0.9,0.2-1.7,0.5-2.8,0.9c1.1,4.2,2.1,8.2,3.3,12.2c0.6,2,0.6,3.9,0,6 C235.9,81.9,234.9,86,233.8,90.1z"></path> <path class="st0" d="M122.3,145.7c3.5-0.4,5.8-1.8,7.7-4.2c2.2,2.1,4.2,4.1,7.7,4.1c-0.5,1.6-0.9,3-0.9,4.5h2.4 c0-1.9,0.8-3.9,1.2-5.9c-2.1-0.6-4.1-0.9-5.8-1.8c-1.7-1-3-2.7-4.7-4.2c-2.5,3.5-5.8,5.4-10.2,5.9c0.5,2.3,1.3,4.2,1.3,6.1h2.3 C123.5,148.6,123.2,147.2,122.3,145.7z"></path> <path class="st0" d="M218.4,96.9c-0.2,0.8-0.4,1.6-0.6,2.5c0.9,0.3,1.6,0.5,2.3,0.7c6.6,1.8,13.3,3.6,19.9,5.3 c1.6,0.4,2.8,1.1,3.9,2.3c4.8,4.8,9.6,9.6,14.4,14.4c0.6,0.6,1.2,1.1,1.9,1.7v-3.2c-0.1,0.1-0.1,0.1-0.2,0.2 c-1.2-1.3-2.2-2.5-3.2-3.6c-3.8-3.8-7.6-7.5-11.3-11.4c-1.4-1.4-2.9-2.2-4.8-2.7c-5.8-1.5-11.7-3.1-17.5-4.6 c-0.7-0.2-1.4-0.4-2.4-0.7c0.2-0.9,0.3-1.7,0.5-2.5c1.6-6.2,3.2-12.3,4.9-18.5c0.4-1.4,0.4-2.6,0-4c-1.7-6.1-3.3-12.1-4.9-18.2 c-0.2-0.8-0.4-1.6-0.6-2.7c1.2-0.3,2.2-0.7,3.2-0.9c5.8-1.6,11.6-3.1,17.5-4.6c1.5-0.4,2.6-1.1,3.7-2.1c4.3-4.4,8.6-8.7,13-13 c0.7-0.7,1.3-1.3,2.2-2.1V26c-0.7,0.6-1.3,1.2-1.9,1.8c-4.8,4.8-9.6,9.6-14.4,14.4c-1.1,1.1-2.4,1.8-3.9,2.2 c-6.6,1.7-13.1,3.5-19.7,5.2c-0.8,0.2-1.6,0.5-2.5,0.8c0.2,0.9,0.4,1.6,0.5,2.3c1.8,6.7,3.6,13.5,5.4,20.2c0.4,1.4,0.4,2.6,0,4 C221.9,83.6,220.1,90.2,218.4,96.9z"></path> <path class="st0" d="M260.2,87.1v-3.7c-1.9-2.1-4.1-3.8-7.3-4c0.4-1.9,0.8-3.3,0.9-4.7c0-1.3-0.5-2.6-0.8-4.1 c3-0.5,5.4-1.7,7.3-4.4v-3.1c0,0-0.1-0.1-0.1-0.1c-2.5,3.5-5.8,5.4-10.2,5.8c0.6,2.4,1.4,4.2,1.4,6.1c0,2-0.8,3.9-1.4,6.2 C254.2,81.5,257.5,83.4,260.2,87.1z"></path> <path class="st0" d="M31.6,149.9c2.4-2.3,4.6-4.5,6.8-6.7c0.4-0.3,0.8-0.6,1.3-0.8c3.1-0.9,6.2-1.7,9.5-2.6 c0.9,3.4,1.8,6.5,2.6,9.7c0,0.1,0,0.3,0,0.4h2.3c0-0.7-0.1-1.3-0.3-2c-0.8-3-1.6-6.1-2.5-9.1c-0.2-0.6-0.5-1.2-0.7-1.9 c-4.1,1.1-8,2.1-12,3.2c-0.5,0.1-1,0.3-1.3,0.7c-3,3-6,6-9.1,9.1c0,0,0,0,0,0h3.4C31.7,150,31.6,149.9,31.6,149.9z"></path> <path class="st0" d="M150.3,0c0,3.1,1.5,6.2,2.3,9.4c0.3,1.2,0.6,2.4,1,3.8c-0.6,0.3-1.1,0.5-1.6,0.7c-3.1,0.9-6.2,1.8-9.3,2.5 c-1.8,0.4-3.2,1.3-4.5,2.6c-2.5,2.7-5.1,5.2-7.8,8c-0.7-0.6-1.2-0.9-1.7-1.4c-2.4-2.3-4.7-4.6-7-7c-1-1.1-2.2-1.7-3.7-2.1 c-3.2-0.8-6.4-1.7-9.6-2.6c-0.6-0.2-1.1-0.4-1.8-0.7c1-3.6,1.8-7.1,2.9-10.6c0.3-0.9,0.4-1.8,0.4-2.7h-2.4c0,0.6-0.1,1.3-0.3,2 c-1.2,4.2-2.3,8.5-3.5,13.1c1.1,0.3,1.9,0.6,2.7,0.8c3.5,1,7,1.9,10.6,2.8c1.4,0.3,2.5,1,3.4,2c2.7,2.8,5.5,5.6,8.3,8.3 c0.5,0.5,1,0.8,1.6,1.3c3.3-3.3,6.5-6.5,9.7-9.7c0.9-1,1.9-1.5,3.2-1.9c3.6-0.9,7.2-1.9,10.8-2.9c0.8-0.2,1.6-0.5,2.5-0.8 c-1.1-4.2-2.1-8.2-3.3-12.2c-0.3-1-0.4-1.9-0.4-2.8L150.3,0C150.3,0,150.3,0,150.3,0z"></path> <path class="st0" d="M96.3,150c0-0.6-0.1-1.2-0.3-1.9c-1.7-6.1-3.3-12.1-4.9-18.2c-0.2-0.8-0.4-1.6-0.6-2.6c0.8-0.3,1.4-0.6,2-0.7 c6.1-1.7,12.3-3.4,18.5-4.9c1.6-0.4,2.8-1.1,3.9-2.2c4.4-4.4,8.8-8.8,13.2-13.2c0.6-0.6,1.2-1.1,2-1.8c0.8,0.7,1.5,1.3,2.1,2 c4.3,4.3,8.7,8.6,13,13c1.1,1.1,2.3,1.9,3.9,2.3c6,1.5,12,3.2,18,4.8c0.8,0.2,1.6,0.5,2.6,0.8c-0.2,0.9-0.2,1.6-0.4,2.3 c-1.6,6.2-3.2,12.3-4.9,18.5c-0.2,0.7-0.3,1.3-0.3,2h2.4c0-0.6,0.1-1.2,0.3-1.9c1.9-6.8,3.7-13.6,5.5-20.4c0.2-0.7,0.3-1.4,0.4-2.2 c-1.1-0.3-2-0.6-2.9-0.8c-6.4-1.7-12.8-3.4-19.2-5.1c-1.5-0.4-2.8-1.1-3.9-2.2c-4.8-4.9-9.7-9.8-14.6-14.6c-0.6-0.6-1.2-1.1-2.1-2 c-0.7,0.9-1.2,1.6-1.8,2.2c-4.7,4.8-9.5,9.5-14.2,14.3c-1.1,1.1-2.3,1.9-3.9,2.3c-5.2,1.3-10.3,2.7-15.5,4.1 c-2.2,0.6-4.4,1.2-6.8,1.9c0.2,1,0.4,1.8,0.6,2.6c1.7,6.6,3.5,13.1,5.3,19.7c0.2,0.8,0.3,1.5,0.3,2.2H96.3z"></path> <path class="st0" d="M13.1,149.9c5.3-5.3,10.5-10.3,15.6-15.6c2.4-2.5,5-4,8.4-4.8c6.4-1.5,12.8-3.4,19.2-5.1 c0.7-0.2,1.5-0.3,2.3-0.5c0.3,0.8,0.5,1.4,0.7,2c2,7.4,4,14.7,5.9,22.1c0.2,0.6,0.3,1.3,0.3,1.9h2.4c0-0.6-0.1-1.3-0.3-1.9 c-2-7.7-4.1-15.4-6.2-23.1c-0.3-1.3-0.7-2.6-1.1-4c-0.7,0.1-0.9,0.1-1.2,0.1c-8.9,2.4-17.7,4.7-26.6,7.2c-1.1,0.3-2.1,1-2.9,1.8 c-6.2,6.1-12.3,12.2-18.4,18.4c-0.5,0.5-0.9,0.9-1.3,1.4c0,0,0,0,0.1,0.1h3.3C13.2,150,13.1,149.9,13.1,149.9z"></path> <path class="st0" d="M164.2,1.8c1.7,6.1,3.3,12.1,4.9,18.2c0.2,0.8,0.4,1.6,0.6,2.7c-6.9,1.9-13.5,3.7-20.1,5.4 c-1.9,0.5-3.4,1.3-4.7,2.7c-4.2,4.3-8.5,8.6-12.8,12.8c-0.6,0.6-1.2,1.1-1.9,1.8c-0.6-0.6-1.2-1-1.8-1.6c-4.5-4.5-9-9-13.5-13.5 c-1.1-1.1-2.2-1.7-3.7-2.1c-5.9-1.5-11.8-3.1-17.7-4.7c-0.9-0.2-1.8-0.5-2.9-0.9c0.2-0.9,0.3-1.7,0.6-2.5C92.7,14.1,94.3,8,96,2 c0.2-0.7,0.3-1.3,0.3-2h-2.5c0,0.7-0.1,1.5-0.3,2.2c-1.8,6.5-3.5,13-5.2,19.4c-0.2,0.8-0.4,1.6-0.7,2.7c1.1,0.3,1.8,0.6,2.5,0.8 c6.5,1.7,13,3.5,19.4,5.2c1.7,0.4,3.1,1.2,4.3,2.5c4.7,4.8,9.5,9.5,14.2,14.3c0.6,0.6,1.3,1.2,2.4,2.2c0.7-1,1.2-1.8,1.9-2.4 c4.7-4.7,9.4-9.4,14-14.1c1.1-1.1,2.3-1.9,3.9-2.3c4.8-1.2,9.5-2.5,14.3-3.8c2.6-0.7,5.2-1.4,8-2.2c-0.2-1-0.4-1.8-0.6-2.6 c-1.7-6.6-3.5-13.1-5.3-19.7c-0.2-0.7-0.3-1.4-0.3-2.1h-2.5C163.9,0.6,164,1.2,164.2,1.8z"></path> <path class="st0" d="M200.8,106.9c-0.2,0.9-0.4,1.8-0.6,2.8c1,0.3,1.8,0.5,2.6,0.8c9.9,2.7,19.8,5.4,29.8,8 c1.5,0.4,2.8,1.1,3.9,2.2c7.2,7.2,14.4,14.4,21.6,21.6c0.6,0.6,1.3,1.2,2.1,2v-3.3c-0.8-0.7-1.4-1.3-2-1.9 c-6.9-6.8-13.7-13.7-20.5-20.6c-1.1-1.1-2.2-1.7-3.7-2.1c-9.4-2.5-18.7-5-28.1-7.5c-0.9-0.2-1.8-0.5-2.9-0.8 c0.3-1.1,0.5-2.1,0.8-3.1c2.5-9.4,5-18.7,7.5-28.1c0.3-1.3,0.4-2.4,0-3.7c-2.6-9.3-5-18.7-7.5-28.1c-0.3-1-0.5-2-0.8-3.1 c0.9-0.3,1.7-0.6,2.5-0.8c9.4-2.5,18.7-5,28.1-7.5c1.6-0.4,2.9-1.1,4.1-2.3c6.7-6.8,13.6-13.6,20.4-20.4c0.6-0.6,1.3-1.2,2.1-2V5.4 c-0.2,0-0.3,0-0.5,0c-0.6,0.8-1,1.6-1.7,2.3c-7.1,7.1-14.2,14.2-21.2,21.3c-1.3,1.3-2.7,2.2-4.5,2.7c-9.8,2.5-19.5,5.2-29.3,7.8 c-0.9,0.2-1.8,0.5-2.8,0.8c0.3,1.1,0.5,2,0.7,2.9c2.6,9.9,5.3,19.9,8,29.8c0.4,1.5,0.4,2.8,0,4.2C206.1,87,203.5,97,200.8,106.9z"></path> <path class="st0" d="M208.3,149.6c0.9-3.2,1.7-6.4,2.6-9.8c3.4,0.9,6.6,1.8,9.8,2.7c0.5,0.1,0.9,0.5,1.2,0.9 c2.2,2.1,4.4,4.3,6.7,6.5c0,0-0.1,0.1-0.1,0.1h3.2c0.1-0.1,0.1-0.1,0.2-0.2c-3-3-5.9-5.8-8.7-8.6c-0.5-0.5-1.1-0.9-1.7-1 c-3.9-1.1-7.9-2.1-12.2-3.3c-0.7,2.6-1.2,5-2.1,7.3c-0.7,1.9-1.1,3.8-1,5.7h2.1C208.3,149.9,208.3,149.7,208.3,149.6z"></path> <path class="st0" d="M109.4,147.2c-1-3.4-1.9-6.9-2.8-10.5c0.8-0.3,1.4-0.6,2.1-0.8c3.2-0.9,6.4-1.8,9.6-2.6 c1.3-0.3,2.3-0.9,3.2-1.9c2.2-2.3,4.4-4.5,6.7-6.7c0.6-0.6,1.2-1.1,2-1.9c1.9,1.9,3.9,3.7,5.6,5.7c2.7,3.2,5.9,5.1,10.1,5.8 c2.6,0.4,5,1.3,7.8,2.1c-0.6,2.4-1,4.6-1.8,6.7c-0.9,2.3-1.3,4.5-1.3,6.8h2.3c0-1,0.2-2.1,0.5-3.2c1.2-3.9,2.1-7.8,3.2-11.9 c-0.7-0.3-1.3-0.5-1.8-0.7c-3.7-1-7.4-2.1-11.1-3c-1.6-0.4-2.9-1.2-4.1-2.4c-2.6-2.7-5.3-5.3-7.9-7.9c-0.5-0.5-1-0.8-1.6-1.3 c-0.7,0.7-1.3,1.2-1.9,1.8c-2.4,2.4-4.8,4.8-7.2,7.2c-1.3,1.3-2.7,2.2-4.5,2.6c-3.6,0.8-7.2,1.9-10.8,2.9c-0.6,0.2-1.2,0.5-1.8,0.7 c1.1,4.2,2.2,8.3,3.3,12.3c0.3,0.9,0.4,1.8,0.4,2.7h2.4C109.8,149.1,109.7,148.1,109.4,147.2z"></path> <path class="st0" d="M209.3,12.9c4.3-1.2,8.4-2.2,12.4-3.3c0.4-0.1,0.8-0.3,1.1-0.6c3-2.9,5.9-5.9,9.1-9.1h-3.2 c-2.4,2.4-4.6,4.6-6.8,6.8c-0.2,0.2-0.5,0.5-0.8,0.6c-3.2,0.9-6.5,1.8-10,2.8c-0.9-3.4-1.8-6.5-2.6-9.6c0-0.1,0-0.3,0-0.5h-2.4 c0,0.2,0,0.4,0.1,0.6C207,4.6,208.1,8.6,209.3,12.9z"></path> <path class="st0" d="M10.3,81.1C9.8,78.8,9,76.8,9,74.9c0-1.9,0.8-3.9,1.3-5.9c-2.1-0.6-4.2-0.9-5.8-1.8c-1.6-0.9-2.9-2.6-4.5-4.1 v3.4c1.2,1.1,2.1,2.2,3.2,2.8c1.1,0.7,2.5,0.9,4.1,1.4c-0.7,2.8-1.3,5.6,0.3,8.5c-3.2,0.7-5.7,1.7-7.6,4.6c0,0,0,0,0,0v3.4 C2.6,83.5,6,81.5,10.3,81.1z"></path> <path class="st0" d="M29.4,19.7c1.1,1.1,2.2,1.7,3.7,2.1c8.3,2.2,16.6,4.4,24.9,6.6c0.7,0.2,1.5,0.3,2.2,0.4 c0.2-0.5,0.4-0.8,0.4-1.1c2.4-8.8,4.7-17.6,7-26.3c0.1-0.5,0.2-1,0.2-1.5h-2.4c0,0.4,0,0.8-0.1,1.2c-2.1,8-4.2,15.9-6.4,23.9 c-0.1,0.3-0.3,0.6-0.5,1.1c-1.9-0.5-3.8-1-5.7-1.5c-6.2-1.7-12.5-3.3-18.7-5c-1-0.3-2.1-0.8-2.8-1.5C25.4,12.3,19.6,6.6,13.9,0.8 c-0.2-0.2-0.4-0.5-0.6-0.8H9.9c0.6,0.7,1.2,1.3,1.7,1.8C17.5,7.8,23.5,13.7,29.4,19.7z"></path> <path class="st0" d="M81.4,150c0-0.8-0.1-1.7-0.4-2.5c-2.5-9.2-5-18.4-7.4-27.6c-0.2-0.9-0.4-1.8-0.7-2.8c1-0.3,1.8-0.6,2.6-0.8 c9.4-2.5,18.9-5.1,28.3-7.6c1.5-0.4,2.6-1,3.7-2.1c6.8-6.8,13.6-13.6,20.4-20.4c0.7-0.7,1.2-1.5,2-2.5c1.2,1.1,1.8,1.7,2.5,2.4 c6.7,6.7,13.5,13.4,20.2,20.2c1.2,1.3,2.6,2.1,4.3,2.5c9.4,2.4,18.7,5,28.1,7.5c0.8,0.2,1.6,0.5,2.5,0.8c-0.4,1.6-0.8,3.1-1.2,4.6 c-2.3,8.5-4.5,17.1-6.9,25.6c-0.3,0.9-0.4,1.8-0.4,2.7h2.4c0-0.7,0.1-1.4,0.3-2.1c2.7-9.9,5.3-19.9,8-29.8c0.2-0.9,0.4-1.7,0.7-2.7 c-1.2-0.4-2.1-0.6-3-0.9c-9.8-2.6-19.5-5.2-29.3-7.8c-1.6-0.4-2.9-1.1-4.1-2.3c-7.2-7.3-14.4-14.4-21.6-21.7 c-0.6-0.6-1.3-1.3-2.1-2c-0.8,0.7-1.5,1.4-2.1,2c-7.1,7.1-14.2,14.2-21.3,21.3c-1.4,1.4-2.8,2.3-4.7,2.8c-10,2.6-20,5.3-30,8 c-0.6,0.2-1.2,0.4-1.9,0.7c0.2,1,0.4,1.8,0.6,2.6c2.6,9.8,5.2,19.5,7.9,29.3c0.2,0.9,0.4,1.7,0.4,2.6H81.4z"></path> <path class="st0" d="M4.2,101.3c2.3-2.3,4.4-5.2,7.2-6.8c2.7-1.6,6.1-1.9,9.2-2.7c1.9-0.5,3.7-1.1,5.7-1.6c-0.2-1-0.4-1.8-0.6-2.6 c-0.9-3.5-1.9-7.1-2.9-10.6c-0.4-1.4-0.4-2.6,0-4c1-3.6,2-7.2,2.9-10.8c0.2-0.8,0.3-1.6,0.5-2.5c-2.8-0.8-5.4-1.7-8.1-2.2 c-5.1-0.8-9.1-3.2-12.4-7.2c-1.7-2.1-3.8-3.8-5.8-5.8c0,0,0,0-0.1,0v3.2c3,3,5.7,5.6,8.3,8.3c1.1,1.1,2.3,1.9,3.9,2.3 c3.7,0.9,7.4,2,11.2,3c-0.1,0.7-0.1,1.2-0.2,1.8c-0.8,3-1.5,6.1-2.4,9.1c-0.6,1.9-0.6,3.6,0,5.5c1.1,3.5,1.9,7,2.9,10.7 c-0.6,0.3-1.1,0.5-1.7,0.7c-2.9,0.8-5.7,1.7-8.6,2.3c-2.4,0.5-4.2,1.6-5.8,3.4c-2.3,2.5-4.7,4.9-7.2,7.4c-0.1-0.1-0.2-0.1-0.2-0.2 v3.3c0.1,0.1,0.2,0.1,0.3,0.2C1.7,104,2.9,102.6,4.2,101.3z"></path> <path class="st0" d="M62.5,76.6c2.3,8.7,4.6,17.4,7,26.1c0.1,0.5,0.4,0.9,0.6,1.3c0.3,0,0.5,0,0.7,0c8.9-2.4,17.9-4.8,26.8-7.2 c1.1-0.3,2.2-1,3-1.8c6.2-6.1,12.3-12.2,18.4-18.4c0.5-0.5,0.9-1,1.5-1.6c-0.3-0.4-0.4-0.6-0.6-0.8c-6.5-6.6-13.1-13.1-19.7-19.6 c-0.7-0.7-1.8-1.2-2.8-1.5c-8.4-2.3-16.7-4.5-25.1-6.8c-0.7-0.2-1.4-0.3-2.1-0.4c-0.2,0.4-0.4,0.6-0.5,0.9 c-2.4,8.9-4.8,17.9-7.2,26.8C62.1,74.6,62.2,75.7,62.5,76.6z M64.9,73.4c2-7.7,4.1-15.4,6.2-23.1c0.1-0.5,0.3-0.9,0.6-1.7 c6.7,1.8,13,3.7,19.5,5.1c4.8,1,8.5,3.2,11.8,6.8c3.9,4.4,8.2,8.3,12.4,12.5c0.6,0.6,1.1,1.2,1.8,1.9c-0.6,0.7-1.1,1.2-1.6,1.8 c-5.3,5.4-10.7,10.7-16,16c-0.8,0.8-1.9,1.5-2.9,1.8c-7.9,2.2-15.9,4.3-23.8,6.4c-0.2,0.1-0.5,0-0.9,0.1c-0.2-0.7-0.5-1.3-0.7-2.1 c-2-7.4-4-14.7-5.9-22.1C64.7,75.8,64.6,74.5,64.9,73.4z"></path> <path class="st0" d="M2.2,142.2c7.2-7.2,14.4-14.4,21.6-21.7c1.1-1.1,2.4-1.8,3.9-2.2c10-2.6,20-5.4,30-8c0.8-0.2,1.5-0.5,2.4-0.8 c-0.3-1.1-0.5-1.9-0.7-2.7c-2.7-10-5.3-20-8-30c-0.3-1.3-0.3-2.5,0-3.7c2.7-10,5.4-20,8-30c0.2-0.9,0.4-1.8,0.7-2.8 c-1.1-0.3-2-0.6-2.9-0.9c-9.8-2.6-19.7-5.3-29.5-7.9c-1.5-0.4-2.8-1.1-3.9-2.2C16.5,22,9.2,14.7,2,7.5C1.4,6.9,0.8,6.4,0,5.6V9 c0.7,0.7,1.4,1.3,2,1.9c6.9,6.8,13.7,13.7,20.5,20.6c1.1,1.1,2.4,1.8,3.9,2.2c9.1,2.4,18.2,4.8,27.3,7.3c1.1,0.3,2.1,0.6,3.4,1 c-0.3,1.1-0.5,2.1-0.7,3c-2.5,9.4-5,18.9-7.6,28.3c-0.3,1.2-0.3,2.3,0,3.5c2.5,9.3,5,18.7,7.5,28.1c0.3,1,0.5,2,0.8,3.2 c-1,0.3-1.9,0.6-2.7,0.8c-9.4,2.5-18.9,5.1-28.3,7.6c-1.4,0.4-2.5,1-3.4,2c-6.8,6.9-13.7,13.7-20.5,20.6c-0.7,0.7-1.1,1.5-1.8,2.5 c-0.2-0.1-0.3-0.3-0.4-0.4v3.3c0,0,0,0,0,0C0.9,143.5,1.5,142.9,2.2,142.2z"></path> <path class="st0" d="M1.9,122.2c4.9-4.9,9.8-9.7,14.6-14.6c1-1,2.1-1.6,3.5-2c6.7-1.8,13.5-3.6,20.2-5.4c0.7-0.2,1.4-0.5,2.3-0.7 c-0.2-0.9-0.3-1.6-0.5-2.3c-1.8-6.7-3.6-13.5-5.4-20.2c-0.4-1.4-0.4-2.6,0-4c1.8-6.7,3.6-13.5,5.4-20.2c0.2-0.7,0.3-1.5,0.5-2.3 c-1-0.3-1.8-0.6-2.6-0.8c-6.2-1.7-12.4-3.4-18.7-5c-2.2-0.6-4-1.6-5.6-3.2c-5-5.2-10.2-10.2-15.5-15.6c0,0-0.1,0-0.1,0.1v3.4 c0.8,0.7,1.4,1.3,2,1.8c4.5,4.4,8.9,8.9,13.3,13.4c1,1,2.1,1.6,3.5,2c6.3,1.7,12.6,3.4,18.9,5.1c0.6,0.2,1.1,0.4,1.8,0.6 c-0.2,0.9-0.4,1.7-0.6,2.5c-1.6,6.1-3.2,12.2-4.9,18.2c-0.4,1.5-0.4,2.8,0,4.2c1.7,6,3.2,12,4.8,18c0.2,0.8,0.4,1.6,0.6,2.7 c-1,0.3-1.9,0.6-2.7,0.8c-6,1.6-12,3.2-18,4.8c-1.5,0.4-2.6,1-3.7,2.1c-4.3,4.4-8.8,8.8-13.1,13.2c-0.6,0.6-1,1.4-1.7,2.3 c-0.1-0.1-0.2-0.2-0.4-0.3v3.3c0,0,0,0,0,0C0.7,123.3,1.3,122.8,1.9,122.2z"></path> <path class="st0" d="M192.6,1.7c1.1,4.5,2.3,8.9,3.5,13.3c1.2,4.6,2.5,9.2,3.8,14c0.7-0.2,1.1-0.2,1.5-0.3 c8.8-2.4,17.6-4.7,26.3-7.1c1-0.3,2-1,2.7-1.7c6.2-6.1,12.4-12.4,18.6-18.6c0.4-0.4,0.8-0.9,1.2-1.3c0,0,0,0,0,0h-3.4 c-0.4,0.5-0.8,1-1.2,1.4c-5.5,5.5-10.9,10.9-16.4,16.4c-0.7,0.7-1.6,1.4-2.5,1.6c-8.2,2.3-16.5,4.5-25.1,6.8 c-0.3-0.9-0.5-1.5-0.7-2.1c-2-7.4-4-14.7-5.9-22.1c-0.2-0.6-0.2-1.2-0.3-1.9h-2.5C192.4,0.6,192.5,1.2,192.6,1.7z"></path> <path class="st0" d="M79.2,88c1.6-0.4,3-0.8,4.3-1.1c3-0.8,6.2-1.1,8.8-2.6c2.6-1.5,4.5-4.1,6.6-6.3c1-1,2-2,3.1-3.2 c-3.1-3.1-6-5.9-8.9-8.8c-0.5-0.5-1.1-0.8-1.7-1c-3.9-1.1-7.9-2.1-11.8-3.1c-0.2,0.3-0.4,0.5-0.5,0.7c-1.1,3.9-2.1,7.7-3.1,11.6 c-0.1,0.4-0.2,0.9-0.1,1.2C76.9,79.5,78,83.6,79.2,88z M78.2,74.5c0.8-3.2,1.7-6.4,2.6-9.8c3.5,0.9,6.7,1.8,10,2.7 c0.4,0.1,0.7,0.5,1,0.7c2.2,2.1,4.4,4.3,6.7,6.6c-1.3,1.4-2.6,2.5-3.7,3.9c-2.3,3-5.3,4.6-9,5.2c-1.6,0.3-3.1,0.8-5,1.3 c-0.9-3.4-1.8-6.5-2.6-9.6C78.1,75.2,78.1,74.8,78.2,74.5z"></path> <path class="st0" d="M181,61.9c-2,0.5-3.8,1.2-5.6,1.5c-5.3,0.8-9.5,3.3-12.9,7.4c-1.2,1.5-2.7,2.8-4.1,4.3 c3.1,3.1,6.1,6.1,9.1,8.9c0.5,0.5,1.3,0.8,2,1c3,0.9,6.1,1.7,9.1,2.4c0.8,0.2,1.6,0.3,2.5,0.5c0.5-1.7,0.9-3.2,1.3-4.6 c0.7-2.8,2-5.6,2-8.4c0-2.8-1.3-5.6-2.1-8.4C181.9,65,181.4,63.5,181,61.9z M180.9,79.5c-0.6,1.7-1,3.6-1.6,5.6 c-3.4-0.9-6.7-1.8-9.9-2.7c-0.2-0.1-0.5-0.2-0.6-0.4c-2.3-2.3-4.7-4.7-7.2-7.1c2.5-2.4,4.7-4.7,7-7c0.3-0.3,0.8-0.6,1.3-0.7 c3-0.8,6-1.6,9.4-2.5c0.6,2,1,3.9,1.6,5.7C182.1,73.5,182.1,76.5,180.9,79.5z"></path> <path class="st0" d="M195.1,148.3c1.9-7.5,4-14.9,6-22.4c0.2-0.6,0.4-1.3,0.7-2c0.8,0.1,1.4,0.2,2.1,0.4c7.5,2,14.9,4,22.4,6 c1,0.3,2.1,0.8,2.8,1.5c5.9,5.8,11.7,11.6,17.5,17.5c0.2,0.2,0.3,0.4,0.5,0.7c0,0,0,0,0,0h3.3c-0.1-0.2-0.1-0.4-0.2-0.5 c-6.7-6.7-13.3-13.4-20-20c-0.6-0.6-1.6-1-2.4-1.3c-8.6-2.3-17.2-4.6-25.8-6.9c-0.5-0.1-1.1-0.2-1.7-0.2c-0.2,0.4-0.3,0.6-0.4,0.8 c-2.4,8.9-4.8,17.9-7.2,26.8c-0.1,0.4-0.1,0.8-0.1,1.3h2.5C194.9,149.4,194.9,148.8,195.1,148.3z"></path> <path class="st0" d="M162.5,53.2c-0.9,0.3-1.8,0.9-2.5,1.6c-3.2,3.1-6.3,6.2-9.4,9.4c-3.5,3.5-7.1,7.1-10.8,10.8 c0.8,0.8,1.3,1.4,1.8,1.9c6,6,12,12,18,18.1c1.1,1.1,2.2,1.7,3.7,2.1c8.1,2.1,16.2,4.4,24.4,6.5c0.9,0.2,1.8,0.4,2.6,0.6 c0.2-0.5,0.4-0.7,0.5-0.9c2.4-8.9,4.8-17.9,7.2-26.8c0.3-1,0.1-2.2-0.1-3.2c-2.2-8.5-4.5-16.9-6.8-25.4c-0.2-0.6-0.4-1.2-0.7-1.9 c-0.5,0.1-0.9,0.1-1.2,0.2C180.2,48.4,171.3,50.8,162.5,53.2z M195.2,73.1c0.3,1.1,0.4,2.4,0.1,3.5c-2,7.6-4,15.3-6.1,22.9 c-0.1,0.6-0.4,1.1-0.6,1.8c-0.8-0.2-1.4-0.3-2.1-0.4c-7.5-2-14.9-4-22.4-6c-1-0.3-2.1-0.8-2.8-1.5c-5.8-5.7-11.6-11.5-17.3-17.3 c-0.2-0.2-0.4-0.5-0.8-0.9c0.4-0.4,0.7-0.9,1.1-1.3c5.6-5.6,11.1-11.2,16.8-16.7c0.7-0.7,1.6-1.3,2.5-1.6 c7.9-2.2,15.9-4.3,23.9-6.4c0.3-0.1,0.7-0.1,1.1-0.2c0.2,0.7,0.5,1.4,0.7,2.2C191.3,58.3,193.3,65.7,195.2,73.1z"></path> <path class="st0" d="M70.7,31.8c-0.2,0.9-0.4,1.7-0.7,2.7c1.1,0.3,1.9,0.6,2.7,0.8c9.7,2.6,19.4,5.2,29.1,7.7c2,0.5,3.5,1.4,5,2.8 c7,7.1,14,14.1,21.1,21.1c0.7,0.7,1.2,1.5,1.9,2.5c1.2-1.1,1.8-1.7,2.5-2.4c7.2-7.2,14.5-14.4,21.6-21.7c1.1-1.1,2.3-1.8,3.9-2.2 c9.9-2.6,19.9-5.3,29.8-8c0.9-0.2,1.7-0.5,2.6-0.8c-0.3-1.1-0.5-1.9-0.7-2.7c-2.7-10-5.3-20-8.1-30c-0.2-0.6-0.2-1.1-0.2-1.7h-2.3 c0,0.9,0.1,1.8,0.4,2.8c2.5,9.2,5,18.4,7.4,27.6c0.2,0.7,0.3,1.5,0.6,2.5c-0.9,0.3-1.8,0.6-2.6,0.8c-9.2,2.5-18.4,4.9-27.6,7.3 c-1.9,0.5-3.4,1.3-4.8,2.7c-6.8,6.9-13.7,13.7-20.5,20.6c-0.5,0.5-1,0.9-1.7,1.6c-0.7-0.6-1.4-1.2-2-1.9 c-6.9-6.9-13.8-13.8-20.7-20.7c-1-1-2-1.6-3.4-2c-9.4-2.4-18.7-5-28.1-7.5c-0.9-0.2-1.8-0.5-3-0.9c0.2-1,0.4-1.8,0.6-2.7 c2.4-9,4.8-18.1,7.3-27.1C81.1,2,81.3,1,81.3,0H79c0,0.6-0.1,1.2-0.2,1.8C76,11.8,73.4,21.8,70.7,31.8z"></path> <path class="st0" d="M39.4,9.8c3.3,0.9,6.5,1.8,9.8,2.6c0.5,0.1,1.1,0.2,1.8,0.3c0.7-2.5,1.2-4.9,2-7.2c0.7-1.9,1-3.7,1-5.5h-2.1 c0,0.2,0,0.4-0.1,0.6c-0.8,3-1.6,6.1-2.5,9.5c-3.4-0.9-6.5-1.7-9.6-2.6c-0.4-0.1-0.8-0.4-1.1-0.6c-2.2-2.2-4.5-4.4-6.9-6.8h-3.4 c3.1,3.1,6,6.1,9,8.9C37.8,9.4,38.7,9.6,39.4,9.8z"></path> </g> </svg>